<?xml version="1.0" standalone="no"?><!DOCTYPE svg PUBLIC "-//W3C//DTD SVG 1.1//EN" "http://www.w3.org/Graphics/SVG/1.1/DTD/svg11.dtd"><svg t="1621088321223" class="icon" viewBox="0 0 1024 1024" version="1.1" xmlns="http://www.w3.org/2000/svg" p-id="3353" xmlns:xlink="http://www.w3.org/1999/xlink" width="200" height="200"><defs><style type="text/css"></style></defs><path d="M565.333333 196.266667c-23.466667-12.8-51.2-12.8-74.666666 0L313.6 298.666667c-2.133333 0-4.266667 2.133333-6.4 2.133333h-128c-42.666667 0-74.666667 34.133333-74.666667 74.666667v288c0 42.666667 34.133333 74.666667 74.666667 74.666666h153.6c2.133333 0 4.266667 0 6.4 2.133334l151.466667 87.466666c12.8 6.4 25.6 10.666667 38.4 10.666667s25.6-4.266667 38.4-10.666667c23.466667-12.8 38.4-38.4 38.4-66.133333V262.4c-2.133333-27.733333-17.066667-51.2-40.533334-66.133333z m-25.6 567.466666c0 6.4-4.266667 8.533333-6.4 10.666667-2.133333 2.133333-6.4 2.133333-10.666666 0l-151.466667-87.466667c-10.666667-6.4-25.6-10.666667-38.4-10.666666H179.2c-6.4 0-10.666667-4.266667-10.666667-10.666667V377.6c0-6.4 4.266667-10.666667 10.666667-10.666667h128c12.8 0 25.6-4.266667 38.4-10.666666l177.066667-102.4c4.266667-2.133333 8.533333-2.133333 10.666666 0 2.133333 2.133333 6.4 4.266667 6.4 10.666666v499.2zM770.133333 262.4c-14.933333-8.533333-34.133333-2.133333-42.666666 12.8-8.533333 14.933333-2.133333 34.133333 12.8 42.666667C810.666667 356.266667 853.333333 430.933333 853.333333 512s-44.8 155.733333-115.2 194.133333c-14.933333 8.533333-21.333333 27.733333-12.8 42.666667 6.4 10.666667 17.066667 17.066667 27.733334 17.066667 4.266667 0 10.666667-2.133333 14.933333-4.266667 91.733333-49.066667 149.333333-145.066667 149.333333-249.6 0-102.4-57.6-198.4-147.2-249.6z" p-id="3354" fill="#1eb3ed"></path></svg>